solid OpenSCAD_Model
  facet normal 0 0 -1
    outer loop
      vertex 101 0 0
      vertex 150 5.99991 0
      vertex 150 0 0
    endloop
  endfacet
  facet normal 0 0 -1
    outer loop
      vertex 101 0 0
      vertex 100 0.999908 0
      vertex 150 5.99991 0
    endloop
  endfacet
  facet normal 0 0 -1
    outer loop
      vertex 80 5.99991 0
      vertex 100 0.999908 0
      vertex 98.9999 0 0
    endloop
  endfacet
  facet normal -0 0 -1
    outer loop
      vertex 150 5.99991 0
      vertex 100 0.999908 0
      vertex 80 5.99991 0
    endloop
  endfacet
  facet normal -0 0 -1
    outer loop
      vertex 80 5.99991 0
      vertex 0 0 0
      vertex 80 18.9999 0
    endloop
  endfacet
  facet normal -0 0 -1
    outer loop
      vertex 80 18.9999 0
      vertex 0 0 0
      vertex 0 25 0
    endloop
  endfacet
  facet normal 0 0 -1
    outer loop
      vertex 150 18.9999 0
      vertex 101 25 0
      vertex 150 25 0
    endloop
  endfacet
  facet normal 0 0 -1
    outer loop
      vertex 150 18.9999 0
      vertex 80 18.9999 0
      vertex 100 23.9999 0
    endloop
  endfacet
  facet normal -0 0 -1
    outer loop
      vertex 100 23.9999 0
      vertex 80 18.9999 0
      vertex 98.9999 25 0
    endloop
  endfacet
  facet normal 0 0 -1
    outer loop
      vertex 150 18.9999 0
      vertex 100 23.9999 0
      vertex 101 25 0
    endloop
  endfacet
  facet normal -0 0 -1
    outer loop
      vertex 98.9999 25 0
      vertex 80 18.9999 0
      vertex 0 25 0
    endloop
  endfacet
  facet normal 0 -0 -1
    outer loop
      vertex 80 5.99991 0
      vertex 98.9999 0 0
      vertex 0 0 0
    endloop
  endfacet
  facet normal 0 -0 1
    outer loop
      vertex 150 0 35
      vertex 150 5.99991 35
      vertex 101 0 35
    endloop
  endfacet
  facet normal 0 0 1
    outer loop
      vertex 150 5.99991 35
      vertex 100 0.999908 35
      vertex 101 0 35
    endloop
  endfacet
  facet normal 0 -0 1
    outer loop
      vertex 98.9999 0 35
      vertex 100 0.999908 35
      vertex 80 5.99991 35
    endloop
  endfacet
  facet normal -0 0 1
    outer loop
      vertex 80 5.99991 35
      vertex 100 0.999908 35
      vertex 150 5.99991 35
    endloop
  endfacet
  facet normal 0 0 1
    outer loop
      vertex 80 18.9999 35
      vertex 0 0 35
      vertex 80 5.99991 35
    endloop
  endfacet
  facet normal 0 0 1
    outer loop
      vertex 0 25 35
      vertex 0 0 35
      vertex 80 18.9999 35
    endloop
  endfacet
  facet normal 0 0 1
    outer loop
      vertex 150 25 35
      vertex 101 25 35
      vertex 150 18.9999 35
    endloop
  endfacet
  facet normal 0 0 1
    outer loop
      vertex 100 23.9999 35
      vertex 80 18.9999 35
      vertex 150 18.9999 35
    endloop
  endfacet
  facet normal 0 0 1
    outer loop
      vertex 98.9999 25 35
      vertex 80 18.9999 35
      vertex 100 23.9999 35
    endloop
  endfacet
  facet normal 0 0 1
    outer loop
      vertex 101 25 35
      vertex 100 23.9999 35
      vertex 150 18.9999 35
    endloop
  endfacet
  facet normal -0 0 1
    outer loop
      vertex 0 25 35
      vertex 80 18.9999 35
      vertex 98.9999 25 35
    endloop
  endfacet
  facet normal 0 0 1
    outer loop
      vertex 0 0 35
      vertex 98.9999 0 35
      vertex 80 5.99991 35
    endloop
  endfacet
  facet normal -0.707074 -0.707139 0
    outer loop
      vertex 101 0 0
      vertex 100 0.999908 35
      vertex 100 0.999908 0
    endloop
  endfacet
  facet normal -0.707074 -0.707139 0
    outer loop
      vertex 101 0 0
      vertex 101 0 35
      vertex 100 0.999908 35
    endloop
  endfacet
  facet normal 0 -1 0
    outer loop
      vertex 150 0 0
      vertex 101 0 35
      vertex 101 0 0
    endloop
  endfacet
  facet normal 0 -1 0
    outer loop
      vertex 150 0 0
      vertex 150 0 35
      vertex 101 0 35
    endloop
  endfacet
  facet normal 1 0 0
    outer loop
      vertex 150 5.99991 0
      vertex 150 0 35
      vertex 150 0 0
    endloop
  endfacet
  facet normal 1 0 -0
    outer loop
      vertex 150 5.99991 0
      vertex 150 5.99991 35
      vertex 150 0 35
    endloop
  endfacet
  facet normal 0 1 0
    outer loop
      vertex 80 5.99991 0
      vertex 150 5.99991 35
      vertex 150 5.99991 0
    endloop
  endfacet
  facet normal 0 1 0
    outer loop
      vertex 80 5.99991 0
      vertex 80 5.99991 35
      vertex 150 5.99991 35
    endloop
  endfacet
  facet normal 1 0 0
    outer loop
      vertex 80 18.9999 0
      vertex 80 5.99991 35
      vertex 80 5.99991 0
    endloop
  endfacet
  facet normal 1 0 -0
    outer loop
      vertex 80 18.9999 0
      vertex 80 18.9999 35
      vertex 80 5.99991 35
    endloop
  endfacet
  facet normal 0 -1 0
    outer loop
      vertex 150 18.9999 0
      vertex 80 18.9999 35
      vertex 80 18.9999 0
    endloop
  endfacet
  facet normal 0 -1 0
    outer loop
      vertex 150 18.9999 0
      vertex 150 18.9999 35
      vertex 80 18.9999 35
    endloop
  endfacet
  facet normal 1 0 0
    outer loop
      vertex 150 25 0
      vertex 150 18.9999 35
      vertex 150 18.9999 0
    endloop
  endfacet
  facet normal 1 0 -0
    outer loop
      vertex 150 25 0
      vertex 150 25 35
      vertex 150 18.9999 35
    endloop
  endfacet
  facet normal 0 1 0
    outer loop
      vertex 101 25 0
      vertex 150 25 35
      vertex 150 25 0
    endloop
  endfacet
  facet normal 0 1 0
    outer loop
      vertex 101 25 0
      vertex 101 25 35
      vertex 150 25 35
    endloop
  endfacet
  facet normal -0.707142 0.707071 0
    outer loop
      vertex 100 23.9999 0
      vertex 101 25 35
      vertex 101 25 0
    endloop
  endfacet
  facet normal -0.707142 0.707071 0
    outer loop
      vertex 100 23.9999 0
      vertex 100 23.9999 35
      vertex 101 25 35
    endloop
  endfacet
  facet normal 0.707107 0.707107 0
    outer loop
      vertex 98.9999 25 0
      vertex 100 23.9999 35
      vertex 100 23.9999 0
    endloop
  endfacet
  facet normal 0.707107 0.707107 -0
    outer loop
      vertex 98.9999 25 0
      vertex 98.9999 25 35
      vertex 100 23.9999 35
    endloop
  endfacet
  facet normal 0 1 0
    outer loop
      vertex 0 25 0
      vertex 98.9999 25 35
      vertex 98.9999 25 0
    endloop
  endfacet
  facet normal 0 1 0
    outer loop
      vertex 0 25 0
      vertex 0 25 35
      vertex 98.9999 25 35
    endloop
  endfacet
  facet normal -1 0 0
    outer loop
      vertex 0 0 0
      vertex 0 25 35
      vertex 0 25 0
    endloop
  endfacet
  facet normal -1 0 0
    outer loop
      vertex 0 0 0
      vertex 0 0 35
      vertex 0 25 35
    endloop
  endfacet
  facet normal 0 -1 0
    outer loop
      vertex 98.9999 0 0
      vertex 0 0 35
      vertex 0 0 0
    endloop
  endfacet
  facet normal 0 -1 0
    outer loop
      vertex 98.9999 0 0
      vertex 98.9999 0 35
      vertex 0 0 35
    endloop
  endfacet
  facet normal 0.707039 -0.707175 0
    outer loop
      vertex 100 0.999908 0
      vertex 98.9999 0 35
      vertex 98.9999 0 0
    endloop
  endfacet
  facet normal 0.707039 -0.707175 0
    outer loop
      vertex 100 0.999908 0
      vertex 100 0.999908 35
      vertex 98.9999 0 35
    endloop
  endfacet
endsolid OpenSCAD_Model
